Coordinates														
version=1														
nRows=62														
nColumns=15														
inDegrees=yes														
														
"Units are S.I. units (second, meters, Newtons, ...)"														
"If the header above contains a line with 'inDegrees', this indicates whether rotational values are in degrees (yes) or radians (no)."														
														
endheader														
time	/jointset/hip_l/hip_flexion_l/value	/jointset/hip_l/hip_adduction_l/value	/jointset/hip_l/hip_rotation_l/value	/jointset/hip_r/hip_flexion_r/value	/jointset/hip_r/hip_adduction_r/value	/jointset/hip_r/hip_rotation_r/value	/jointset/walker_knee_l/knee_angle_l/value	/jointset/walker_knee_r/knee_angle_r/value	/jointset/ankle_l/ankle_angle_l/value	/jointset/ankle_r/ankle_angle_r/value	/jointset/subtalar_l/subtalar_angle_l/value	/jointset/subtalar_r/subtalar_angle_r/value	/jointset/mtp_l/mtp_angle_l/value	/jointset/mtp_r/mtp_angle_r/value
37.51	33.11107921	10.89344502	-30.6158619	97.69274709	0.56329157	30.49240619	16.85789518	56.66599822	-28.56028497	-47.94905419	13.55529865	-11.28177033	-41.14737946	-14.36725872
37.52	24.18336198	-44.9100594	21.93067965	-29.09524304	-38.05980735	-14.40831094	14.07972614	5.14680611	16.83790453	41.67613044	-7.74805967	-24.64623843	-24.01962917	-13.25986149
37.53	59.14477703	-17.47499642	29.14718964	75.65752178	-29.16612271	-15.53923989	20.67641042	65.94876039	-17.46375125	-4.95903299	-22.45712758	21.1654695	-41.09698781	-10.543721
37.54	16.09101852	-10.9959126	-2.56111211	55.37031975	-10.42737798	34.9302776	91.55182516	22.4343035	-40.93745631	15.59245898	-25.64749068	34.06513037	0.96176931	-11.19959826
37.55	89.59113136	11.07131227	19.38507876	8.72235991	-47.3884568	-15.19640959	15.61842026	35.2087269	-8.05742921	46.39333416	5.47879535	5.43975828	-7.37148027	-26.80736806
37.56	76.42379683	12.06173587	20.81711876	51.38726917	-40.51453218	16.19385373	29.20206624	76.9502454	32.77286068	1.78254229	31.92587372	6.19023877	-16.94469115	-19.95810928
37.57	11.32837159	0.47798702	22.60578314	-7.80681566	-37.54907877	-7.19769056	62.16026049	75.01318478	45.39853264	-5.29206147	-22.9430158	-9.66261371	-40.90809214	-38.42076665
37.58	107.7599927	13.62746385	23.45641304	17.90712734	-9.7354265	-26.51516226	114.0724851	11.93454992	33.58244743	-44.959903	0.64777288	-16.14147641	-39.16592508	-30.57408007
37.59	68.26054109	-40.91697253	13.66330882	5.82909706	-4.80958028	-37.00152236	58.0661569	99.53396325	-37.14799328	-25.28673314	-17.85567238	-30.40134316	-1.67002079	-5.85192694
37.6	25.66468182	-34.37492116	29.19140405	54.49828852	-11.02671071	33.26224063	40.06937907	45.85383326	16.16338568	47.19010691	17.31155213	34.54556985	-43.53807828	-43.02588089
37.61	51.13435228	-15.2758413	-29.18269385	113.2123876	-0.37827419	-22.86428623	84.69701311	48.90440402	-24.12186575	-13.54722626	-29.87014959	11.51725351	-36.11921709	-10.89948865
37.62	80.38680524	-10.22623444	7.96706055	104.7536833	18.09748965	17.42106972	22.98119322	85.27299492	-13.07205356	24.43168649	9.41669471	-22.37447004	0.73422737	-35.01910838
37.63	83.15576119	-40.57437621	-19.57286901	85.03842214	-33.20058453	-12.31443152	52.53933264	132.4792707	-22.71973932	-9.90385221	20.66130883	-28.14372776	-43.21821222	-20.24470446
37.64	9.80979982	-47.16885318	-5.09958758	-18.75835313	-14.26990978	-27.98532196	83.40115509	7.45313303	-18.757356	-36.27591422	-25.42400759	-12.10060911	-0.43343856	-26.1334072
37.65	-12.75142592	-25.45552057	31.78758445	-3.06129726	-10.28767688	-32.9992057	125.3863866	125.9882105	27.6730671	-43.49988148	12.57403503	-30.10179256	-9.36736854	-15.15750235
37.66	30.73031635	12.26569928	-4.03885398	117.9653225	-15.82890919	26.45904261	10.00108214	105.6285099	49.82514948	2.44107543	2.3570566	-1.30100272	4.9633677	-13.31801797
37.67	74.64893325	-23.95378665	7.37673356	105.3074277	-39.33060767	12.40159894	58.87627162	132.0537465	-34.49286046	11.91597672	28.21110848	-4.82665453	-20.01080162	-22.4317197
37.68	59.37544689	-17.7612584	0.1505185	90.23681049	12.43443933	-24.38825099	23.14875222	128.8051353	43.65759287	22.11296456	-15.51017377	-13.69881488	-4.34817795	-36.14585059
37.69	-11.56312917	6.44538604	-8.64429897	76.08374357	-49.84088978	-30.4860259	89.54967514	108.7836779	-39.85108313	-43.62565529	-28.36040346	29.67304292	-30.71928995	-20.35182519
37.7	9.45868584	-36.71935458	-31.14710103	86.25312971	-35.34607791	13.09787176	8.05643635	34.5623416	-42.0726904	-48.18390733	-30.25580965	-12.00043067	-2.947813	-23.69121758
37.71	67.81463409	-47.00821164	-24.53311448	61.09249677	0.74459133	-35.1191443	6.364084	20.978583	-34.25673468	-22.21838796	25.48417709	-13.16131293	-2.05575362	1.08796128
37.72	1.36891597	8.24550823	-14.62204227	50.41186902	19.81635619	-27.80932022	6.26885876	12.21968607	46.31041574	-14.34623415	12.15149066	6.90694059	-6.12572754	-37.33492091
37.73	117.0584596	1.82562158	-1.50874712	43.00607545	-30.3705807	8.50846268	118.7481786	120.9603616	-31.22026845	24.03750331	-9.6879296	-2.76710102	-36.04966383	-8.90712983
37.74	45.13274239	13.60530672	30.81321437	68.54833155	-1.79585157	33.30558331	23.56662422	48.31360071	10.98355309	-10.21187929	-9.87627079	-24.53279799	-42.60430407	-22.55501566
37.75	-17.35599303	-45.20093918	-26.52156501	22.06186731	-0.85242217	17.24222054	123.8547997	26.59550941	-14.71240552	-1.63943883	2.59717252	-5.78164634	0.08267102	-5.19309534
37.76	11.79649697	-14.67450995	-34.21500718	11.56189353	-44.88550403	-36.47110755	8.36656048	109.270723	-13.83031665	-10.2811188	22.92632791	27.40952634	-26.66114878	-10.60652337
37.77	20.04000308	0.15050645	-38.11763493	110.5594246	-48.28331524	10.97065493	42.53577539	26.80716994	-27.90093	38.35042284	2.59965709	-32.01676265	-28.67034694	-37.34697601
37.78	64.63134949	8.70460907	-16.3177462	95.97406038	5.06897277	-9.19135502	97.96370114	105.7291422	-29.77098066	-15.7543174	32.35955475	29.60610571	-10.92093786	-6.73251156
37.79	25.42095057	-38.10663786	-33.00019206	20.57386071	-40.09850253	-26.14329916	1.42207955	130.1267907	-31.2775009	-2.62650716	3.2382411	-18.89644224	-16.49509046	-3.90500488
37.8	98.45860486	14.79100704	-28.78366963	54.8744553	-2.93910014	5.82842624	102.843319	29.58849897	24.35820089	43.11202907	-0.6417057	22.77095394	-27.96073906	-35.12524341
37.81	82.64559842	-8.73033975	-27.22938477	105.4482349	-47.68599723	11.84381499	38.49238535	114.2009135	-46.96166186	44.46150383	-33.73401458	-20.23681887	-36.50039042	4.42435705
37.82	79.5887685	-20.1235231	-27.84406851	-27.22910887	-19.35021196	2.37898759	123.8009236	27.93138935	-0.06523796	-39.91785877	-30.75151461	9.70510483	-0.81459288	-6.53617719
37.83	45.90713036	3.52163457	-20.00658323	43.44308869	9.52732547	18.95795581	88.74851097	48.03770475	37.23825819	9.39078427	2.26851081	29.00107078	-26.46488801	-36.55519426
37.84	86.40785484	-27.39415583	-4.08760486	109.7111757	-39.42377113	-7.91873753	128.3210102	45.92871212	-28.16084031	-4.90918489	19.04593371	-27.26827955	-44.4594674	-10.18319025
37.85	28.2145211	-26.04592324	31.44869838	16.59755154	-46.4779047	29.47007805	109.5058801	55.46884175	9.98258433	-40.14633635	2.14089086	-19.95515878	-18.43252534	-0.58996775
37.86	40.60474668	2.83348225	34.36791243	42.52450836	-40.86211459	-2.44692986	51.52515573	48.91791601	-36.55087012	-2.26586042	12.69422118	22.63329095	-2.92623375	-19.12141331
37.87	61.18776145	8.28380363	-7.70571467	81.78905482	-46.54677601	1.36632457	22.59439975	93.06433465	-17.0171833	-17.3599784	-6.83494939	-0.98399953	-15.65672194	-23.11112008
37.88	92.90612274	-16.08250018	7.7294961	67.40520112	-26.20066137	17.06728055	136.3266258	66.42908036	-39.59799023	-21.15370306	6.47309695	-21.64577451	-21.01676618	-24.52152389
37.89	39.79131934	-48.58552784	-20.837728	66.32046493	-31.74686328	-25.63674136	20.86100444	56.10300992	-37.20161057	21.84098768	3.02661401	-18.71909151	-40.22365429	-31.53436047
37.9	110.6890961	9.27657394	-6.58945331	60.68749278	-42.93911037	-25.9326531	38.86877277	54.69456172	17.79627697	39.21002278	-27.81120977	26.46491731	-42.16624712	-27.31171157
37.91	117.2073894	-27.98964096	6.32919086	96.48132958	-33.75431061	-29.03962452	130.1591701	13.73302953	-27.26803591	-33.75306543	27.26482916	13.19508682	-17.81434434	-14.20557003
37.92	44.47685055	-7.08629724	34.69260206	68.5994656	-36.72964026	-30.40389871	12.07323733	134.0391381	-49.96126355	-33.96872986	20.03072543	12.09190423	-30.09643578	-8.38236154
37.93	-9.29501096	-5.73518507	28.01133412	18.61000297	7.51360103	-22.25717042	1.96493507	104.7150278	-4.79182106	16.91535101	1.37476495	-25.50197216	-17.65458553	-43.92106959
37.94	76.00171479	0.94962324	10.42343613	-5.1741208	4.39761597	-9.75880981	106.8603884	71.1145919	38.28372084	44.79209462	33.18757	7.20025919	-34.98438924	-1.49912831
37.95	14.85135891	-36.32091355	-36.85359238	28.87432531	-6.86844975	16.84745771	137.0652342	89.33792815	35.2950171	-38.63887981	17.72229268	22.27861319	-2.74623604	-9.70622134
37.96	82.51145926	-6.57240677	-10.37587801	88.91620266	-27.84963995	21.05166239	27.61594085	17.68689701	21.59670064	42.95736497	29.83487964	8.14173059	-39.80339752	-32.98303853
37.97	72.60653379	-21.33611575	7.98705731	22.73897995	1.82718633	-36.98964974	99.43992312	9.06343224	-2.33001558	-42.57323076	-10.09591631	0.11981125	-34.1330404	-39.63756192
37.98	41.30737246	-45.30218417	24.7327335	-6.93896685	9.02576815	13.7537588	128.8779674	127.1369549	-41.53960656	-46.86805195	-34.19037233	-0.74375456	-36.30885198	-19.64601802
37.99	114.1007516	-29.90223738	14.77638083	85.76859419	-10.61094574	12.93170221	5.47379842	80.81058936	5.58934632	-35.20089703	-19.51591941	-13.69359104	-29.00215654	4.32095262
38	101.6388253	-11.21022996	-18.51430625	66.03182391	-47.8828884	-31.85172498	89.80015753	115.9129739	45.72869299	22.50732872	-23.75196339	-9.5631095	-38.6190232	-7.46357036
38.01	34.22490014	11.4445157	1.64112776	90.61322304	5.68050923	-16.8244644	41.59525728	36.71729952	15.12800945	9.07154762	-2.6327869	14.62468945	-14.92293398	-13.80869506
38.02	68.06387038	-34.95884846	-22.857247	-4.04121758	-15.00591779	-39.37986859	58.04529528	31.89191405	45.61116372	4.52297366	-1.08969262	-12.65749909	-29.50161661	2.74109856
38.03	106.6006431	19.36065315	2.50248659	22.66737235	-33.27476644	-26.45579379	114.169816	1.77058039	-46.53516146	-35.33608112	-9.01141111	-22.2272282	-27.19358198	-4.29956982
38.04	94.32500985	-1.79594294	1.96047481	95.35522136	-31.05692762	-24.48464212	42.85379315	69.62289926	6.34291768	44.75615785	14.6597091	25.90501878	-20.71105789	-22.48242542
38.05	-2.49579976	-5.5677842	6.84873133	88.63445819	-45.53119397	22.20479814	4.14825149	7.47433266	45.28061596	8.81199138	-15.3226256	32.53830275	-26.16916285	-6.43739725
38.06	-24.63479432	-48.69222619	-6.9468527	2.31290218	8.73742198	-9.65145912	26.69202966	48.08675411	-14.97752349	-22.80434413	-1.57982322	7.82750916	-6.81720992	-37.77533566
38.07	80.75811234	7.87934533	-12.10218344	-9.3478156	-46.13904405	27.68867235	95.34797549	134.6843101	-26.90379085	-4.92158435	28.7502431	-17.54754714	-34.24926002	-20.36726985
38.08	-29.40216009	-6.67624837	8.55616457	2.97555436	-3.49943087	-3.00492511	135.0355165	122.5194989	9.60290443	-37.23007925	5.84022779	14.14836481	-28.0028659	-6.00404547
38.09	28.59616141	-39.05275062	5.96957465	-27.9959779	-35.60834523	10.60087129	3.80054427	59.02688461	-49.95970343	42.92344247	-6.71182457	-0.59645241	-7.71469249	-14.03352001
38.1	53.86361156	-3.86552723	31.50680149	76.34744748	-3.09805249	-34.88601099	19.00252447	69.83071714	5.6854186	-17.69670029	19.52246001	13.44672868	-24.3788927	-4.12898372
38.11	114.5905433	-26.44018896	-0.30554025	22.07343133	-45.59378789	23.94997251	87.21819676	18.22387854	35.88857525	-40.06153908	28.58772236	22.39385371	-24.21916879	0.40481609
38.12	94.34743096	-10.67433606	-38.49823546	107.4486099	18.27895465	27.96478634	72.64642293	11.49839774	-42.4658148	47.31248276	17.48213992	20.13440461	-2.78456476	-19.26277942
